# Vectary OBJ Export units=mm
mtllib Project Name.mtl
o 000_Box_-_baked
g Box_-_baked
usemtl Box material_3cc16f6b-453f-402e-ae3b-dfa0b3d1f729
v 0.000 13.627 -14.842
v 0.000 13.627 -76.006
v 145.190 13.627 -76.006
v 145.190 13.627 -14.842
v -145.190 13.627 -14.842
v -145.190 13.627 -76.006
v 0.000 13.627 -137.169
v 145.190 13.627 -137.169
v -145.190 13.627 -137.169
v -145.190 132.212 -76.006
v -145.190 132.212 -137.169
v -145.190 132.212 -14.842
v -145.190 250.796 -76.006
v -145.190 250.796 -137.169
v -145.190 250.796 -14.842
v 0.000 132.212 -14.842
v 145.190 132.212 -14.842
v 0.000 250.796 -14.842
v 145.190 250.796 -14.842
v 0.000 132.212 -137.169
v 145.190 132.212 -137.169
v 0.000 250.796 -137.169
v 145.190 250.796 -137.169
v 145.190 132.212 -76.006
v 145.190 250.796 -76.006
v 0.000 250.796 -76.006
vn 0.00000 -1.00000 -0.00000
vn 0.00000 -1.00000 -0.00000
vn 0.00000 -1.00000 -0.00000
vn 0.00000 -1.00000 -0.00000
vn 0.00000 -1.00000 -0.00000
vn 0.00000 -1.00000 -0.00000
vn 0.00000 -1.00000 -0.00000
vn 0.00000 -1.00000 -0.00000
vn 0.00000 -1.00000 -0.00000
vn 0.00000 -1.00000 -0.00000
vn 0.00000 -1.00000 -0.00000
vn 0.00000 -1.00000 -0.00000
vn 0.00000 -1.00000 -0.00000
vn 0.00000 -1.00000 -0.00000
vn 0.00000 -1.00000 -0.00000
vn 0.00000 -1.00000 -0.00000
vn -1.00000 0.00000 0.00000
vn -1.00000 0.00000 0.00000
vn -1.00000 0.00000 0.00000
vn -1.00000 0.00000 0.00000
vn -1.00000 0.00000 0.00000
vn -1.00000 0.00000 0.00000
vn -1.00000 0.00000 0.00000
vn -1.00000 0.00000 0.00000
vn -1.00000 0.00000 0.00000
vn -1.00000 0.00000 0.00000
vn -1.00000 0.00000 0.00000
vn -1.00000 0.00000 0.00000
vn -1.00000 0.00000 0.00000
vn -1.00000 0.00000 0.00000
vn -1.00000 0.00000 0.00000
vn -1.00000 0.00000 0.00000
vn 0.00000 -0.00000 1.00000
vn 0.00000 -0.00000 1.00000
vn 0.00000 -0.00000 1.00000
vn 0.00000 -0.00000 1.00000
vn 0.00000 -0.00000 1.00000
vn 0.00000 -0.00000 1.00000
vn 0.00000 -0.00000 1.00000
vn 0.00000 -0.00000 1.00000
vn 0.00000 -0.00000 1.00000
vn 0.00000 -0.00000 1.00000
vn 0.00000 -0.00000 1.00000
vn 0.00000 -0.00000 1.00000
vn 0.00000 -0.00000 1.00000
vn 0.00000 -0.00000 1.00000
vn 0.00000 -0.00000 1.00000
vn 0.00000 -0.00000 1.00000
vn 0.00000 0.00000 -1.00000
vn 0.00000 0.00000 -1.00000
vn 0.00000 0.00000 -1.00000
vn 0.00000 0.00000 -1.00000
vn 0.00000 0.00000 -1.00000
vn 0.00000 0.00000 -1.00000
vn 0.00000 0.00000 -1.00000
vn 0.00000 0.00000 -1.00000
vn 0.00000 0.00000 -1.00000
vn 0.00000 0.00000 -1.00000
vn 0.00000 0.00000 -1.00000
vn 0.00000 0.00000 -1.00000
vn 0.00000 0.00000 -1.00000
vn 0.00000 0.00000 -1.00000
vn 0.00000 0.00000 -1.00000
vn 0.00000 0.00000 -1.00000
vn 1.00000 0.00000 0.00000
vn 1.00000 0.00000 0.00000
vn 1.00000 0.00000 0.00000
vn 1.00000 0.00000 0.00000
vn 1.00000 0.00000 0.00000
vn 1.00000 0.00000 0.00000
vn 1.00000 0.00000 0.00000
vn 1.00000 0.00000 0.00000
vn 1.00000 0.00000 0.00000
vn 1.00000 0.00000 0.00000
vn 1.00000 0.00000 0.00000
vn 1.00000 0.00000 0.00000
vn 1.00000 0.00000 0.00000
vn 1.00000 0.00000 0.00000
vn 1.00000 0.00000 0.00000
vn 1.00000 0.00000 0.00000
vn 0.00000 1.00000 0.00000
vn 0.00000 1.00000 0.00000
vn 0.00000 1.00000 0.00000
vn 0.00000 1.00000 0.00000
vn 0.00000 1.00000 0.00000
vn 0.00000 1.00000 0.00000
vn 0.00000 1.00000 0.00000
vn 0.00000 1.00000 0.00000
vn 0.00000 1.00000 0.00000
vn 0.00000 1.00000 0.00000
vn 0.00000 1.00000 0.00000
vn 0.00000 1.00000 0.00000
vn 0.00000 1.00000 0.00000
vn 0.00000 1.00000 0.00000
vn 0.00000 1.00000 0.00000
vn 0.00000 1.00000 0.00000
f 2//2 3//3 4//4 1//1 
f 6//6 2//7 1//8 5//5 
f 7//10 8//11 3//12 2//9 
f 9//14 7//15 2//16 6//13 
f 10//18 11//19 9//20 6//17 
f 12//22 10//23 6//24 5//21 
f 13//26 14//27 11//28 10//25 
f 15//30 13//31 10//32 12//29 
f 16//34 12//35 5//36 1//33 
f 17//38 16//39 1//40 4//37 
f 18//42 15//43 12//44 16//41 
f 19//46 18//47 16//48 17//45 
f 20//50 21//51 8//52 7//49 
f 11//54 20//55 7//56 9//53 
f 22//58 23//59 21//60 20//57 
f 14//62 22//63 20//64 11//61 
f 24//66 17//67 4//68 3//65 
f 21//70 24//71 3//72 8//69 
f 25//74 19//75 17//76 24//73 
f 23//78 25//79 24//80 21//77 
f 26//82 13//83 15//84 18//81 
f 25//86 26//87 18//88 19//85 
f 22//90 14//91 13//92 26//89 
f 23//94 22//95 26//96 25//93 
o 001_PngItem_313579
g PngItem_313579
usemtl _166a392a-a03b-4cc4-bac1-20dd02ce2f0a
v -83.607 67.123 -8.475
v -134.055 67.123 -8.475
v -134.055 23.653 -8.475
v -83.607 23.653 -8.475
v -83.607 110.592 -8.475
v -134.055 110.592 -8.475
v -83.607 154.062 -8.475
v -134.055 154.062 -8.475
v -83.607 197.532 -8.475
v -134.055 197.532 -8.475
v -83.607 241.001 -8.475
v -134.055 241.001 -8.475
v -33.158 67.123 -8.475
v -33.158 23.653 -8.475
v -33.158 110.592 -8.475
v -33.158 154.062 -8.475
v -33.158 197.532 -8.475
v -33.158 241.001 -8.475
v 17.290 67.123 -8.475
v 17.290 23.653 -8.475
v 17.290 110.592 -8.475
v 17.290 154.062 -8.475
v 17.290 197.532 -8.475
v 17.290 241.001 -8.475
v 67.738 67.123 -8.475
v 67.738 23.653 -8.475
v 67.738 110.592 -8.475
v 67.738 154.062 -8.475
v 67.738 197.532 -8.475
v 67.738 241.001 -8.475
v 118.187 67.123 -8.475
v 118.187 23.653 -8.475
v 118.187 110.592 -8.475
v 118.187 154.062 -8.475
v 118.187 197.532 -8.475
v 118.187 241.001 -8.475
vt 0.20000 0.20000
vt 0.00000 0.20000
vt 0.00000 0.00000
vt 0.20000 0.00000
vt 0.20000 0.40000
vt 0.00000 0.40000
vt 0.20000 0.60000
vt 0.00000 0.60000
vt 0.20000 0.80000
vt 0.00000 0.80000
vt 0.20000 1.00000
vt 0.00000 1.00000
vt 0.40000 0.20000
vt 0.40000 0.00000
vt 0.40000 0.40000
vt 0.40000 0.60000
vt 0.40000 0.80000
vt 0.40000 1.00000
vt 0.60000 0.20000
vt 0.60000 0.00000
vt 0.60000 0.40000
vt 0.60000 0.60000
vt 0.60000 0.80000
vt 0.60000 1.00000
vt 0.80000 0.20000
vt 0.80000 0.00000
vt 0.80000 0.40000
vt 0.80000 0.60000
vt 0.80000 0.80000
vt 0.80000 1.00000
vt 1.00000 0.20000
vt 1.00000 0.00000
vt 1.00000 0.40000
vt 1.00000 0.60000
vt 1.00000 0.80000
vt 1.00000 1.00000
vn 0.00000 0.00000 1.00000
vn 0.00000 0.00000 1.00000
vn 0.00000 0.00000 1.00000
vn 0.00000 0.00000 1.00000
vn 0.00000 0.00000 1.00000
vn 0.00000 0.00000 1.00000
vn 0.00000 0.00000 1.00000
vn 0.00000 0.00000 1.00000
vn 0.00000 0.00000 1.00000
vn 0.00000 0.00000 1.00000
vn 0.00000 0.00000 1.00000
vn 0.00000 0.00000 1.00000
vn 0.00000 0.00000 1.00000
vn 0.00000 0.00000 1.00000
vn 0.00000 0.00000 1.00000
vn 0.00000 0.00000 1.00000
vn 0.00000 0.00000 1.00000
vn 0.00000 0.00000 1.00000
vn 0.00000 0.00000 1.00000
vn 0.00000 0.00000 1.00000
vn 0.00000 0.00000 1.00000
vn 0.00000 0.00000 1.00000
vn 0.00000 0.00000 1.00000
vn 0.00000 0.00000 1.00000
vn 0.00000 0.00000 1.00000
vn 0.00000 0.00000 1.00000
vn 0.00000 0.00000 1.00000
vn 0.00000 0.00000 1.00000
vn 0.00000 0.00000 1.00000
vn 0.00000 0.00000 1.00000
vn 0.00000 0.00000 1.00000
vn 0.00000 0.00000 1.00000
vn 0.00000 0.00000 1.00000
vn 0.00000 0.00000 1.00000
vn 0.00000 0.00000 1.00000
vn 0.00000 0.00000 1.00000
vn 0.00000 0.00000 1.00000
vn 0.00000 0.00000 1.00000
vn 0.00000 0.00000 1.00000
vn 0.00000 0.00000 1.00000
vn 0.00000 0.00000 1.00000
vn 0.00000 0.00000 1.00000
vn 0.00000 0.00000 1.00000
vn 0.00000 0.00000 1.00000
vn 0.00000 0.00000 1.00000
vn 0.00000 0.00000 1.00000
vn 0.00000 0.00000 1.00000
vn 0.00000 0.00000 1.00000
vn 0.00000 0.00000 1.00000
vn 0.00000 0.00000 1.00000
vn 0.00000 0.00000 1.00000
vn 0.00000 0.00000 1.00000
vn 0.00000 0.00000 1.00000
vn 0.00000 0.00000 1.00000
vn 0.00000 0.00000 1.00000
vn 0.00000 0.00000 1.00000
vn 0.00000 0.00000 1.00000
vn 0.00000 0.00000 1.00000
vn 0.00000 0.00000 1.00000
vn 0.00000 0.00000 1.00000
vn 0.00000 0.00000 1.00000
vn 0.00000 0.00000 1.00000
vn 0.00000 0.00000 1.00000
vn 0.00000 0.00000 1.00000
vn 0.00000 0.00000 1.00000
vn 0.00000 0.00000 1.00000
vn 0.00000 0.00000 1.00000
vn 0.00000 0.00000 1.00000
vn 0.00000 0.00000 1.00000
vn 0.00000 0.00000 1.00000
vn 0.00000 0.00000 1.00000
vn 0.00000 0.00000 1.00000
vn 0.00000 0.00000 1.00000
vn 0.00000 0.00000 1.00000
vn 0.00000 0.00000 1.00000
vn 0.00000 0.00000 1.00000
vn 0.00000 0.00000 1.00000
vn 0.00000 0.00000 1.00000
vn 0.00000 0.00000 1.00000
vn 0.00000 0.00000 1.00000
vn 0.00000 0.00000 1.00000
vn 0.00000 0.00000 1.00000
vn 0.00000 0.00000 1.00000
vn 0.00000 0.00000 1.00000
vn 0.00000 0.00000 1.00000
vn 0.00000 0.00000 1.00000
vn 0.00000 0.00000 1.00000
vn 0.00000 0.00000 1.00000
vn 0.00000 0.00000 1.00000
vn 0.00000 0.00000 1.00000
vn 0.00000 0.00000 1.00000
vn 0.00000 0.00000 1.00000
vn 0.00000 0.00000 1.00000
vn 0.00000 0.00000 1.00000
vn 0.00000 0.00000 1.00000
vn 0.00000 0.00000 1.00000
vn 0.00000 0.00000 1.00000
vn 0.00000 0.00000 1.00000
vn 0.00000 0.00000 1.00000
vn 0.00000 0.00000 1.00000
f 28/2/98 29/3/99 30/4/100 27/1/97 
f 32/6/102 28/2/103 27/1/104 31/5/101 
f 34/8/106 32/6/107 31/5/108 33/7/105 
f 36/10/110 34/8/111 33/7/112 35/9/109 
f 38/12/114 36/10/115 35/9/116 37/11/113 
f 27/1/118 30/4/119 40/14/120 39/13/117 
f 31/5/122 27/1/123 39/13/124 41/15/121 
f 33/7/126 31/5/127 41/15/128 42/16/125 
f 35/9/130 33/7/131 42/16/132 43/17/129 
f 37/11/134 35/9/135 43/17/136 44/18/133 
f 39/13/138 40/14/139 46/20/140 45/19/137 
f 41/15/142 39/13/143 45/19/144 47/21/141 
f 42/16/146 41/15/147 47/21/148 48/22/145 
f 43/17/150 42/16/151 48/22/152 49/23/149 
f 44/18/154 43/17/155 49/23/156 50/24/153 
f 45/19/158 46/20/159 52/26/160 51/25/157 
f 47/21/162 45/19/163 51/25/164 53/27/161 
f 48/22/166 47/21/167 53/27/168 54/28/165 
f 49/23/170 48/22/171 54/28/172 55/29/169 
f 50/24/174 49/23/175 55/29/176 56/30/173 
f 51/25/178 52/26/179 58/32/180 57/31/177 
f 53/27/182 51/25/183 57/31/184 59/33/181 
f 54/28/186 53/27/187 59/33/188 60/34/185 
f 55/29/190 54/28/191 60/34/192 61/35/189 
f 56/30/194 55/29/195 61/35/196 62/36/193 
