# Vectary OBJ Export units=mm
mtllib Project Name.mtl
o 000_Capgemini_Logo
g Capgemini_Logo
usemtl _cf1bbcd9-20e8-4332-865e-d6a2e1e2c9c8
v -128.000 27.171 -14.673
v -128.000 47.926 -14.207
v -76.800 47.926 -14.207
v -76.800 27.171 -14.673
v -128.000 68.681 -13.741
v -76.800 68.681 -13.741
v -128.000 89.437 -13.276
v -76.800 89.437 -13.276
v -128.000 110.192 -12.810
v -76.800 110.192 -12.810
v -128.000 130.948 -12.345
v -76.800 130.948 -12.345
v -25.600 47.926 -14.207
v -25.600 27.171 -14.673
v -25.600 68.681 -13.741
v -25.600 89.437 -13.276
v -25.600 110.192 -12.810
v -25.600 130.948 -12.345
v 25.600 47.926 -14.207
v 25.600 27.171 -14.673
v 25.600 68.681 -13.741
v 25.600 89.437 -13.276
v 25.600 110.192 -12.810
v 25.600 130.948 -12.345
v 76.800 47.926 -14.207
v 76.800 27.171 -14.673
v 76.800 68.681 -13.741
v 76.800 89.437 -13.276
v 76.800 110.192 -12.810
v 76.800 130.948 -12.345
v 128.000 47.926 -14.207
v 128.000 27.171 -14.673
v 128.000 68.681 -13.741
v 128.000 89.437 -13.276
v 128.000 110.192 -12.810
v 128.000 130.948 -12.345
vt 0.00000 0.00000
vt 0.00000 0.20000
vt 0.20000 0.20000
vt 0.20000 0.00000
vt 0.00000 0.40000
vt 0.20000 0.40000
vt 0.00000 0.60000
vt 0.20000 0.60000
vt 0.00000 0.80000
vt 0.20000 0.80000
vt 0.00000 1.00000
vt 0.20000 1.00000
vt 0.40000 0.20000
vt 0.40000 0.00000
vt 0.40000 0.40000
vt 0.40000 0.60000
vt 0.40000 0.80000
vt 0.40000 1.00000
vt 0.60000 0.20000
vt 0.60000 0.00000
vt 0.60000 0.40000
vt 0.60000 0.60000
vt 0.60000 0.80000
vt 0.60000 1.00000
vt 0.80000 0.20000
vt 0.80000 0.00000
vt 0.80000 0.40000
vt 0.80000 0.60000
vt 0.80000 0.80000
vt 0.80000 1.00000
vt 1.00000 0.20000
vt 1.00000 0.00000
vt 1.00000 0.40000
vt 1.00000 0.60000
vt 1.00000 0.80000
vt 1.00000 1.00000
vn 0.00000 0.02243 -0.99975
vn 0.00000 0.02243 -0.99975
vn 0.00000 0.02243 -0.99975
vn 0.00000 0.02243 -0.99975
vn 0.00000 0.02243 -0.99975
vn 0.00000 0.02243 -0.99975
vn 0.00000 0.02243 -0.99975
vn 0.00000 0.02243 -0.99975
vn 0.00000 0.02243 -0.99975
vn 0.00000 0.02243 -0.99975
vn 0.00000 0.02243 -0.99975
vn 0.00000 0.02243 -0.99975
vn 0.00000 0.02243 -0.99975
vn 0.00000 0.02243 -0.99975
vn 0.00000 0.02243 -0.99975
vn 0.00000 0.02243 -0.99975
vn 0.00000 0.02243 -0.99975
vn 0.00000 0.02243 -0.99975
vn 0.00000 0.02243 -0.99975
vn 0.00000 0.02243 -0.99975
vn 0.00000 0.02243 -0.99975
vn 0.00000 0.02243 -0.99975
vn 0.00000 0.02243 -0.99975
vn 0.00000 0.02243 -0.99975
vn 0.00000 0.02243 -0.99975
vn 0.00000 0.02243 -0.99975
vn 0.00000 0.02243 -0.99975
vn 0.00000 0.02243 -0.99975
vn 0.00000 0.02243 -0.99975
vn 0.00000 0.02243 -0.99975
vn 0.00000 0.02243 -0.99975
vn 0.00000 0.02243 -0.99975
vn 0.00000 0.02243 -0.99975
vn 0.00000 0.02243 -0.99975
vn 0.00000 0.02243 -0.99975
vn 0.00000 0.02243 -0.99975
vn 0.00000 0.02243 -0.99975
vn 0.00000 0.02243 -0.99975
vn 0.00000 0.02243 -0.99975
vn 0.00000 0.02243 -0.99975
vn 0.00000 0.02243 -0.99975
vn 0.00000 0.02243 -0.99975
vn 0.00000 0.02243 -0.99975
vn 0.00000 0.02243 -0.99975
vn 0.00000 0.02243 -0.99975
vn 0.00000 0.02243 -0.99975
vn 0.00000 0.02243 -0.99975
vn 0.00000 0.02243 -0.99975
vn 0.00000 0.02243 -0.99975
vn 0.00000 0.02243 -0.99975
vn 0.00000 0.02243 -0.99975
vn 0.00000 0.02243 -0.99975
vn 0.00000 0.02243 -0.99975
vn 0.00000 0.02243 -0.99975
vn 0.00000 0.02243 -0.99975
vn 0.00000 0.02243 -0.99975
vn 0.00000 0.02243 -0.99975
vn 0.00000 0.02243 -0.99975
vn 0.00000 0.02243 -0.99975
vn 0.00000 0.02243 -0.99975
vn 0.00000 0.02243 -0.99975
vn 0.00000 0.02243 -0.99975
vn 0.00000 0.02243 -0.99975
vn 0.00000 0.02243 -0.99975
vn 0.00000 0.02243 -0.99975
vn 0.00000 0.02243 -0.99975
vn 0.00000 0.02243 -0.99975
vn 0.00000 0.02243 -0.99975
vn 0.00000 0.02243 -0.99975
vn 0.00000 0.02243 -0.99975
vn 0.00000 0.02243 -0.99975
vn 0.00000 0.02243 -0.99975
vn 0.00000 0.02243 -0.99975
vn 0.00000 0.02243 -0.99975
vn 0.00000 0.02243 -0.99975
vn 0.00000 0.02243 -0.99975
vn 0.00000 0.02243 -0.99975
vn 0.00000 0.02243 -0.99975
vn 0.00000 0.02243 -0.99975
vn 0.00000 0.02243 -0.99975
vn 0.00000 0.02243 -0.99975
vn 0.00000 0.02243 -0.99975
vn 0.00000 0.02243 -0.99975
vn 0.00000 0.02243 -0.99975
vn 0.00000 0.02243 -0.99975
vn 0.00000 0.02243 -0.99975
vn 0.00000 0.02243 -0.99975
vn 0.00000 0.02243 -0.99975
vn 0.00000 0.02243 -0.99975
vn 0.00000 0.02243 -0.99975
vn 0.00000 0.02243 -0.99975
vn 0.00000 0.02243 -0.99975
vn 0.00000 0.02243 -0.99975
vn 0.00000 0.02243 -0.99975
vn 0.00000 0.02243 -0.99975
vn 0.00000 0.02243 -0.99975
vn 0.00000 0.02243 -0.99975
vn 0.00000 0.02243 -0.99975
vn 0.00000 0.02243 -0.99975
vn 0.00000 0.02243 -0.99975
f 2/2/2 3/3/3 4/4/4 1/1/1 
f 5/5/6 6/6/7 3/3/8 2/2/5 
f 7/7/10 8/8/11 6/6/12 5/5/9 
f 9/9/14 10/10/15 8/8/16 7/7/13 
f 11/11/18 12/12/19 10/10/20 9/9/17 
f 3/3/22 13/13/23 14/14/24 4/4/21 
f 6/6/26 15/15/27 13/13/28 3/3/25 
f 8/8/30 16/16/31 15/15/32 6/6/29 
f 10/10/34 17/17/35 16/16/36 8/8/33 
f 12/12/38 18/18/39 17/17/40 10/10/37 
f 13/13/42 19/19/43 20/20/44 14/14/41 
f 15/15/46 21/21/47 19/19/48 13/13/45 
f 16/16/50 22/22/51 21/21/52 15/15/49 
f 17/17/54 23/23/55 22/22/56 16/16/53 
f 18/18/58 24/24/59 23/23/60 17/17/57 
f 19/19/62 25/25/63 26/26/64 20/20/61 
f 21/21/66 27/27/67 25/25/68 19/19/65 
f 22/22/70 28/28/71 27/27/72 21/21/69 
f 23/23/74 29/29/75 28/28/76 22/22/73 
f 24/24/78 30/30/79 29/29/80 23/23/77 
f 25/25/82 31/31/83 32/32/84 26/26/81 
f 27/27/86 33/33/87 31/31/88 25/25/85 
f 28/28/90 34/34/91 33/33/92 27/27/89 
f 29/29/94 35/35/95 34/34/96 28/28/93 
f 30/30/98 36/36/99 35/35/100 29/29/97 
o 001_PngItem_313579
g PngItem_313579
usemtl _5215d89a-8405-46fa-b9a3-3f1d79a05664
v -129.796 175.227 -12.486
v -129.796 188.633 -12.486
v -114.237 188.633 -12.486
v -114.237 175.227 -12.486
v -129.796 202.039 -12.486
v -114.237 202.039 -12.486
v -129.796 215.446 -12.486
v -114.237 215.446 -12.486
v -129.796 228.852 -12.486
v -114.237 228.852 -12.486
v -129.796 242.258 -12.486
v -114.237 242.258 -12.486
v -98.678 188.633 -12.486
v -98.678 175.227 -12.486
v -98.678 202.039 -12.486
v -98.678 215.446 -12.486
v -98.678 228.852 -12.486
v -98.678 242.258 -12.486
v -83.120 188.633 -12.486
v -83.120 175.227 -12.486
v -83.120 202.039 -12.486
v -83.120 215.446 -12.486
v -83.120 228.852 -12.486
v -83.120 242.258 -12.486
v -67.561 188.633 -12.486
v -67.561 175.227 -12.486
v -67.561 202.039 -12.486
v -67.561 215.446 -12.486
v -67.561 228.852 -12.486
v -67.561 242.258 -12.486
v -52.003 188.633 -12.486
v -52.003 175.227 -12.486
v -52.003 202.039 -12.486
v -52.003 215.446 -12.486
v -52.003 228.852 -12.486
v -52.003 242.258 -12.486
vt 0.00000 0.00000
vt 0.00000 0.20000
vt 0.20000 0.20000
vt 0.20000 0.00000
vt 0.00000 0.40000
vt 0.20000 0.40000
vt 0.00000 0.60000
vt 0.20000 0.60000
vt 0.00000 0.80000
vt 0.20000 0.80000
vt 0.00000 1.00000
vt 0.20000 1.00000
vt 0.40000 0.20000
vt 0.40000 0.00000
vt 0.40000 0.40000
vt 0.40000 0.60000
vt 0.40000 0.80000
vt 0.40000 1.00000
vt 0.60000 0.20000
vt 0.60000 0.00000
vt 0.60000 0.40000
vt 0.60000 0.60000
vt 0.60000 0.80000
vt 0.60000 1.00000
vt 0.80000 0.20000
vt 0.80000 0.00000
vt 0.80000 0.40000
vt 0.80000 0.60000
vt 0.80000 0.80000
vt 0.80000 1.00000
vt 1.00000 0.20000
vt 1.00000 0.00000
vt 1.00000 0.40000
vt 1.00000 0.60000
vt 1.00000 0.80000
vt 1.00000 1.00000
vn 0.00000 -0.00000 -1.00000
vn 0.00000 -0.00000 -1.00000
vn 0.00000 -0.00000 -1.00000
vn 0.00000 -0.00000 -1.00000
vn 0.00000 -0.00000 -1.00000
vn 0.00000 -0.00000 -1.00000
vn 0.00000 -0.00000 -1.00000
vn 0.00000 -0.00000 -1.00000
vn 0.00000 -0.00000 -1.00000
vn 0.00000 -0.00000 -1.00000
vn 0.00000 -0.00000 -1.00000
vn 0.00000 -0.00000 -1.00000
vn 0.00000 -0.00000 -1.00000
vn 0.00000 -0.00000 -1.00000
vn 0.00000 -0.00000 -1.00000
vn 0.00000 -0.00000 -1.00000
vn 0.00000 -0.00000 -1.00000
vn 0.00000 -0.00000 -1.00000
vn 0.00000 -0.00000 -1.00000
vn 0.00000 -0.00000 -1.00000
vn 0.00000 -0.00000 -1.00000
vn 0.00000 -0.00000 -1.00000
vn 0.00000 -0.00000 -1.00000
vn 0.00000 -0.00000 -1.00000
vn 0.00000 -0.00000 -1.00000
vn 0.00000 -0.00000 -1.00000
vn 0.00000 -0.00000 -1.00000
vn 0.00000 -0.00000 -1.00000
vn 0.00000 -0.00000 -1.00000
vn 0.00000 -0.00000 -1.00000
vn 0.00000 -0.00000 -1.00000
vn 0.00000 -0.00000 -1.00000
vn 0.00000 -0.00000 -1.00000
vn 0.00000 -0.00000 -1.00000
vn 0.00000 -0.00000 -1.00000
vn 0.00000 -0.00000 -1.00000
vn 0.00000 -0.00000 -1.00000
vn 0.00000 -0.00000 -1.00000
vn 0.00000 -0.00000 -1.00000
vn 0.00000 -0.00000 -1.00000
vn 0.00000 -0.00000 -1.00000
vn 0.00000 -0.00000 -1.00000
vn 0.00000 -0.00000 -1.00000
vn 0.00000 -0.00000 -1.00000
vn 0.00000 -0.00000 -1.00000
vn 0.00000 -0.00000 -1.00000
vn 0.00000 -0.00000 -1.00000
vn 0.00000 -0.00000 -1.00000
vn 0.00000 -0.00000 -1.00000
vn 0.00000 -0.00000 -1.00000
vn 0.00000 -0.00000 -1.00000
vn 0.00000 -0.00000 -1.00000
vn 0.00000 -0.00000 -1.00000
vn 0.00000 -0.00000 -1.00000
vn 0.00000 -0.00000 -1.00000
vn 0.00000 -0.00000 -1.00000
vn 0.00000 -0.00000 -1.00000
vn 0.00000 -0.00000 -1.00000
vn 0.00000 -0.00000 -1.00000
vn 0.00000 -0.00000 -1.00000
vn 0.00000 -0.00000 -1.00000
vn 0.00000 -0.00000 -1.00000
vn 0.00000 -0.00000 -1.00000
vn 0.00000 -0.00000 -1.00000
vn 0.00000 -0.00000 -1.00000
vn 0.00000 -0.00000 -1.00000
vn 0.00000 -0.00000 -1.00000
vn 0.00000 -0.00000 -1.00000
vn 0.00000 -0.00000 -1.00000
vn 0.00000 -0.00000 -1.00000
vn 0.00000 -0.00000 -1.00000
vn 0.00000 -0.00000 -1.00000
vn 0.00000 -0.00000 -1.00000
vn 0.00000 -0.00000 -1.00000
vn 0.00000 -0.00000 -1.00000
vn 0.00000 -0.00000 -1.00000
vn 0.00000 -0.00000 -1.00000
vn 0.00000 -0.00000 -1.00000
vn 0.00000 -0.00000 -1.00000
vn 0.00000 -0.00000 -1.00000
vn 0.00000 -0.00000 -1.00000
vn 0.00000 -0.00000 -1.00000
vn 0.00000 -0.00000 -1.00000
vn 0.00000 -0.00000 -1.00000
vn 0.00000 -0.00000 -1.00000
vn 0.00000 -0.00000 -1.00000
vn 0.00000 -0.00000 -1.00000
vn 0.00000 -0.00000 -1.00000
vn 0.00000 -0.00000 -1.00000
vn 0.00000 -0.00000 -1.00000
vn 0.00000 -0.00000 -1.00000
vn 0.00000 -0.00000 -1.00000
vn 0.00000 -0.00000 -1.00000
vn 0.00000 -0.00000 -1.00000
vn 0.00000 -0.00000 -1.00000
vn 0.00000 -0.00000 -1.00000
vn 0.00000 -0.00000 -1.00000
vn 0.00000 -0.00000 -1.00000
vn 0.00000 -0.00000 -1.00000
vn 0.00000 -0.00000 -1.00000
f 38/38/102 39/39/103 40/40/104 37/37/101 
f 41/41/106 42/42/107 39/39/108 38/38/105 
f 43/43/110 44/44/111 42/42/112 41/41/109 
f 45/45/114 46/46/115 44/44/116 43/43/113 
f 47/47/118 48/48/119 46/46/120 45/45/117 
f 39/39/122 49/49/123 50/50/124 40/40/121 
f 42/42/126 51/51/127 49/49/128 39/39/125 
f 44/44/130 52/52/131 51/51/132 42/42/129 
f 46/46/134 53/53/135 52/52/136 44/44/133 
f 48/48/138 54/54/139 53/53/140 46/46/137 
f 49/49/142 55/55/143 56/56/144 50/50/141 
f 51/51/146 57/57/147 55/55/148 49/49/145 
f 52/52/150 58/58/151 57/57/152 51/51/149 
f 53/53/154 59/59/155 58/58/156 52/52/153 
f 54/54/158 60/60/159 59/59/160 53/53/157 
f 55/55/162 61/61/163 62/62/164 56/56/161 
f 57/57/166 63/63/167 61/61/168 55/55/165 
f 58/58/170 64/64/171 63/63/172 57/57/169 
f 59/59/174 65/65/175 64/64/176 58/58/173 
f 60/60/178 66/66/179 65/65/180 59/59/177 
f 61/61/182 67/67/183 68/68/184 62/62/181 
f 63/63/186 69/69/187 67/67/188 61/61/185 
f 64/64/190 70/70/191 69/69/192 63/63/189 
f 65/65/194 71/71/195 70/70/196 64/64/193 
f 66/66/198 72/72/199 71/71/200 65/65/197 
o 002_Box_-_baked
g Box_-_baked
usemtl Box material_3cc16f6b-453f-402e-ae3b-dfa0b3d1f729
v 0.000 13.627 -14.842
v 0.000 13.627 -76.006
v 145.190 13.627 -76.006
v 145.190 13.627 -14.842
v -145.190 13.627 -14.842
v -145.190 13.627 -76.006
v 0.000 13.627 -137.169
v 145.190 13.627 -137.169
v -145.190 13.627 -137.169
v -145.190 132.212 -76.006
v -145.190 132.212 -137.169
v -145.190 132.212 -14.842
v -145.190 250.796 -76.006
v -145.190 250.796 -137.169
v -145.190 250.796 -14.842
v 0.000 132.212 -14.842
v 145.190 132.212 -14.842
v 0.000 250.796 -14.842
v 145.190 250.796 -14.842
v 0.000 132.212 -137.169
v 145.190 132.212 -137.169
v 0.000 250.796 -137.169
v 145.190 250.796 -137.169
v 145.190 132.212 -76.006
v 145.190 250.796 -76.006
v 0.000 250.796 -76.006
vn 0.00000 -1.00000 -0.00000
vn 0.00000 -1.00000 -0.00000
vn 0.00000 -1.00000 -0.00000
vn 0.00000 -1.00000 -0.00000
vn 0.00000 -1.00000 -0.00000
vn 0.00000 -1.00000 -0.00000
vn 0.00000 -1.00000 -0.00000
vn 0.00000 -1.00000 -0.00000
vn 0.00000 -1.00000 -0.00000
vn 0.00000 -1.00000 -0.00000
vn 0.00000 -1.00000 -0.00000
vn 0.00000 -1.00000 -0.00000
vn 0.00000 -1.00000 -0.00000
vn 0.00000 -1.00000 -0.00000
vn 0.00000 -1.00000 -0.00000
vn 0.00000 -1.00000 -0.00000
vn -1.00000 0.00000 0.00000
vn -1.00000 0.00000 0.00000
vn -1.00000 0.00000 0.00000
vn -1.00000 0.00000 0.00000
vn -1.00000 0.00000 0.00000
vn -1.00000 0.00000 0.00000
vn -1.00000 0.00000 0.00000
vn -1.00000 0.00000 0.00000
vn -1.00000 0.00000 0.00000
vn -1.00000 0.00000 0.00000
vn -1.00000 0.00000 0.00000
vn -1.00000 0.00000 0.00000
vn -1.00000 0.00000 0.00000
vn -1.00000 0.00000 0.00000
vn -1.00000 0.00000 0.00000
vn -1.00000 0.00000 0.00000
vn 0.00000 -0.00000 1.00000
vn 0.00000 -0.00000 1.00000
vn 0.00000 -0.00000 1.00000
vn 0.00000 -0.00000 1.00000
vn 0.00000 -0.00000 1.00000
vn 0.00000 -0.00000 1.00000
vn 0.00000 -0.00000 1.00000
vn 0.00000 -0.00000 1.00000
vn 0.00000 -0.00000 1.00000
vn 0.00000 -0.00000 1.00000
vn 0.00000 -0.00000 1.00000
vn 0.00000 -0.00000 1.00000
vn 0.00000 -0.00000 1.00000
vn 0.00000 -0.00000 1.00000
vn 0.00000 -0.00000 1.00000
vn 0.00000 -0.00000 1.00000
vn 0.00000 0.00000 -1.00000
vn 0.00000 0.00000 -1.00000
vn 0.00000 0.00000 -1.00000
vn 0.00000 0.00000 -1.00000
vn 0.00000 0.00000 -1.00000
vn 0.00000 0.00000 -1.00000
vn 0.00000 0.00000 -1.00000
vn 0.00000 0.00000 -1.00000
vn 0.00000 0.00000 -1.00000
vn 0.00000 0.00000 -1.00000
vn 0.00000 0.00000 -1.00000
vn 0.00000 0.00000 -1.00000
vn 0.00000 0.00000 -1.00000
vn 0.00000 0.00000 -1.00000
vn 0.00000 0.00000 -1.00000
vn 0.00000 0.00000 -1.00000
vn 1.00000 0.00000 0.00000
vn 1.00000 0.00000 0.00000
vn 1.00000 0.00000 0.00000
vn 1.00000 0.00000 0.00000
vn 1.00000 0.00000 0.00000
vn 1.00000 0.00000 0.00000
vn 1.00000 0.00000 0.00000
vn 1.00000 0.00000 0.00000
vn 1.00000 0.00000 0.00000
vn 1.00000 0.00000 0.00000
vn 1.00000 0.00000 0.00000
vn 1.00000 0.00000 0.00000
vn 1.00000 0.00000 0.00000
vn 1.00000 0.00000 0.00000
vn 1.00000 0.00000 0.00000
vn 1.00000 0.00000 0.00000
vn 0.00000 1.00000 0.00000
vn 0.00000 1.00000 0.00000
vn 0.00000 1.00000 0.00000
vn 0.00000 1.00000 0.00000
vn 0.00000 1.00000 0.00000
vn 0.00000 1.00000 0.00000
vn 0.00000 1.00000 0.00000
vn 0.00000 1.00000 0.00000
vn 0.00000 1.00000 0.00000
vn 0.00000 1.00000 0.00000
vn 0.00000 1.00000 0.00000
vn 0.00000 1.00000 0.00000
vn 0.00000 1.00000 0.00000
vn 0.00000 1.00000 0.00000
vn 0.00000 1.00000 0.00000
vn 0.00000 1.00000 0.00000
f 74//202 75//203 76//204 73//201 
f 78//206 74//207 73//208 77//205 
f 79//210 80//211 75//212 74//209 
f 81//214 79//215 74//216 78//213 
f 82//218 83//219 81//220 78//217 
f 84//222 82//223 78//224 77//221 
f 85//226 86//227 83//228 82//225 
f 87//230 85//231 82//232 84//229 
f 88//234 84//235 77//236 73//233 
f 89//238 88//239 73//240 76//237 
f 90//242 87//243 84//244 88//241 
f 91//246 90//247 88//248 89//245 
f 92//250 93//251 80//252 79//249 
f 83//254 92//255 79//256 81//253 
f 94//258 95//259 93//260 92//257 
f 86//262 94//263 92//264 83//261 
f 96//266 89//267 76//268 75//265 
f 93//270 96//271 75//272 80//269 
f 97//274 91//275 89//276 96//273 
f 95//278 97//279 96//280 93//277 
f 98//282 85//283 87//284 90//281 
f 97//286 98//287 90//288 91//285 
f 94//290 86//291 85//292 98//289 
f 95//294 94//295 98//296 97//293 
o 003_Cone
g Cone
usemtl Cone material_8177ca32-a4ec-46e5-802c-0ec0e5c6d424
v 56.769 374.879 -78.403
v 81.959 312.788 -75.159
v 75.242 312.788 -89.585
v 107.150 250.697 -71.916
v 93.715 250.697 -100.767
v 61.469 312.788 -99.739
v 66.168 250.697 -121.075
v 45.900 312.788 -101.743
v 35.031 250.697 -125.084
v 34.483 312.788 -94.832
v 12.197 250.697 -111.262
v 31.578 312.788 -81.646
v 6.388 250.697 -84.889
v 38.296 312.788 -67.220
v 19.822 250.697 -56.038
v 52.069 312.788 -57.066
v 47.369 250.697 -35.730
v 67.638 312.788 -55.062
v 78.506 250.697 -31.721
v 79.055 312.788 -61.973
v 101.340 250.697 -45.543
v 56.769 250.697 -78.403
vn 0.92141 0.36717 -0.12723
vn 0.92141 0.36717 -0.12723
vn 0.72636 0.32516 -0.60553
vn 0.92141 0.36717 -0.12723
vn 0.92141 0.36717 -0.12723
vn 0.72636 0.32516 -0.60553
vn 0.72636 0.32516 -0.60553
vn 0.72636 0.32516 -0.60553
vn 0.72636 0.32516 -0.60553
vn 0.36172 0.32734 -0.87293
vn 0.72636 0.32516 -0.60553
vn 0.72636 0.32516 -0.60553
vn 0.36172 0.32734 -0.87293
vn 0.36172 0.32734 -0.87293
vn 0.36172 0.32734 -0.87293
vn 0.36172 0.32734 -0.87293
vn -0.16603 0.37232 -0.91313
vn 0.36172 0.32734 -0.87293
vn 0.36172 0.32734 -0.87293
vn -0.16603 0.37232 -0.91313
vn -0.16603 0.37232 -0.91313
vn -0.16603 0.37232 -0.91313
vn -0.16603 0.37232 -0.91313
vn -0.74380 0.40722 -0.53004
vn -0.16603 0.37232 -0.91313
vn -0.16603 0.37232 -0.91313
vn -0.74380 0.40722 -0.53004
vn -0.74380 0.40722 -0.53004
vn -0.74380 0.40722 -0.53004
vn -0.74380 0.40722 -0.53004
vn -0.92141 0.36717 0.12723
vn -0.74380 0.40722 -0.53004
vn -0.74380 0.40722 -0.53004
vn -0.92141 0.36717 0.12723
vn -0.92141 0.36717 0.12723
vn -0.92141 0.36717 0.12723
vn -0.92141 0.36717 0.12723
vn -0.72636 0.32516 0.60553
vn -0.92141 0.36717 0.12723
vn -0.92141 0.36717 0.12723
vn -0.72636 0.32516 0.60553
vn -0.72636 0.32516 0.60553
vn -0.72636 0.32516 0.60553
vn -0.72636 0.32516 0.60553
vn -0.36172 0.32734 0.87293
vn -0.72636 0.32516 0.60553
vn -0.72636 0.32516 0.60553
vn -0.36172 0.32734 0.87293
vn -0.36172 0.32734 0.87293
vn -0.36172 0.32734 0.87293
vn -0.36172 0.32734 0.87293
vn 0.16603 0.37232 0.91313
vn -0.36172 0.32734 0.87293
vn -0.36172 0.32734 0.87293
vn 0.16603 0.37232 0.91313
vn 0.16603 0.37232 0.91313
vn 0.16603 0.37232 0.91313
vn 0.16603 0.37232 0.91313
vn 0.74380 0.40722 0.53004
vn 0.16603 0.37232 0.91313
vn 0.16603 0.37232 0.91313
vn 0.74380 0.40722 0.53004
vn 0.74380 0.40722 0.53004
vn 0.74380 0.40722 0.53004
vn 0.74380 0.40722 0.53004
vn 0.92141 0.36717 -0.12723
vn 0.74380 0.40722 0.53004
vn 0.74380 0.40722 0.53004
vn 0.92141 0.36717 -0.12723
vn 0.92141 0.36717 -0.12723
vn 0.00000 -1.00000 -0.00000
vn 0.00000 -1.00000 -0.00000
vn 0.00000 -1.00000 -0.00000
vn 0.00000 -1.00000 -0.00000
vn 0.00000 -1.00000 -0.00000
vn 0.00000 -1.00000 -0.00000
vn 0.00000 -1.00000 -0.00000
vn 0.00000 -1.00000 -0.00000
vn 0.00000 -1.00000 -0.00000
vn 0.00000 -1.00000 -0.00000
vn 0.00000 -1.00000 -0.00000
vn 0.00000 -1.00000 -0.00000
vn 0.00000 -1.00000 -0.00000
vn 0.00000 -1.00000 -0.00000
vn 0.00000 -1.00000 -0.00000
vn 0.00000 -1.00000 -0.00000
vn 0.00000 -1.00000 -0.00000
vn 0.00000 -1.00000 -0.00000
vn 0.00000 -1.00000 -0.00000
vn 0.00000 -1.00000 -0.00000
vn 0.00000 -1.00000 -0.00000
vn 0.00000 -1.00000 -0.00000
vn 0.00000 -1.00000 -0.00000
vn 0.00000 -1.00000 -0.00000
vn 0.00000 -1.00000 -0.00000
vn 0.00000 -1.00000 -0.00000
vn 0.00000 -1.00000 -0.00000
vn 0.00000 -1.00000 -0.00000
vn 0.00000 -1.00000 -0.00000
vn 0.00000 -1.00000 -0.00000
f 99//297 100//298 101//299 
f 102//301 103//302 101//303 100//300 
f 99//304 101//305 104//306 
f 103//308 105//309 104//310 101//307 
f 99//311 104//312 106//313 
f 105//315 107//316 106//317 104//314 
f 99//318 106//319 108//320 
f 107//322 109//323 108//324 106//321 
f 99//325 108//326 110//327 
f 109//329 111//330 110//331 108//328 
f 99//332 110//333 112//334 
f 111//336 113//337 112//338 110//335 
f 99//339 112//340 114//341 
f 113//343 115//344 114//345 112//342 
f 99//346 114//347 116//348 
f 115//350 117//351 116//352 114//349 
f 99//353 116//354 118//355 
f 117//357 119//358 118//359 116//356 
f 99//360 118//361 100//362 
f 119//364 102//365 100//366 118//363 
f 120//367 103//368 102//369 
f 120//370 105//371 103//372 
f 120//373 107//374 105//375 
f 120//376 109//377 107//378 
f 120//379 111//380 109//381 
f 120//382 113//383 111//384 
f 120//385 115//386 113//387 
f 120//388 117//389 115//390 
f 120//391 119//392 117//393 
f 120//394 102//395 119//396 
