# Vectary OBJ Export units=mm
mtllib teste.mtl
o 000_Image_Plane
g Image_Plane
usemtl _4ecfc605-9407-4e03-9bce-fc32cf776f7c
v -51.328 15.286 76.800
v -85.547 15.286 76.800
v -85.547 15.286 128.000
v -51.328 15.286 128.000
v -51.328 15.286 25.600
v -85.547 15.286 25.600
v -51.328 15.286 -25.600
v -85.547 15.286 -25.600
v -51.328 15.286 -76.800
v -85.547 15.286 -76.800
v -51.328 15.286 -128.000
v -85.547 15.286 -128.000
v -17.109 15.286 76.800
v -17.109 15.286 128.000
v -17.109 15.286 25.600
v -17.109 15.286 -25.600
v -17.109 15.286 -76.800
v -17.109 15.286 -128.000
v 17.109 15.286 76.800
v 17.109 15.286 128.000
v 17.109 15.286 25.600
v 17.109 15.286 -25.600
v 17.109 15.286 -76.800
v 17.109 15.286 -128.000
v 51.328 15.286 76.800
v 51.328 15.286 128.000
v 51.328 15.286 25.600
v 51.328 15.286 -25.600
v 51.328 15.286 -76.800
v 51.328 15.286 -128.000
v 85.547 15.286 76.800
v 85.547 15.286 128.000
v 85.547 15.286 25.600
v 85.547 15.286 -25.600
v 85.547 15.286 -76.800
v 85.547 15.286 -128.000
vt 0.20000 0.20000
vt 0.00000 0.20000
vt 0.00000 0.00000
vt 0.20000 0.00000
vt 0.20000 0.40000
vt 0.00000 0.40000
vt 0.20000 0.60000
vt 0.00000 0.60000
vt 0.20000 0.80000
vt 0.00000 0.80000
vt 0.20000 1.00000
vt 0.00000 1.00000
vt 0.40000 0.20000
vt 0.40000 0.00000
vt 0.40000 0.40000
vt 0.40000 0.60000
vt 0.40000 0.80000
vt 0.40000 1.00000
vt 0.60000 0.20000
vt 0.60000 0.00000
vt 0.60000 0.40000
vt 0.60000 0.60000
vt 0.60000 0.80000
vt 0.60000 1.00000
vt 0.80000 0.20000
vt 0.80000 0.00000
vt 0.80000 0.40000
vt 0.80000 0.60000
vt 0.80000 0.80000
vt 0.80000 1.00000
vt 1.00000 0.20000
vt 1.00000 0.00000
vt 1.00000 0.40000
vt 1.00000 0.60000
vt 1.00000 0.80000
vt 1.00000 1.00000
vn 0.00000 1.00000 0.00000
vn 0.00000 1.00000 0.00000
vn 0.00000 1.00000 0.00000
vn 0.00000 1.00000 0.00000
vn 0.00000 1.00000 0.00000
vn 0.00000 1.00000 0.00000
vn 0.00000 1.00000 0.00000
vn 0.00000 1.00000 0.00000
vn 0.00000 1.00000 0.00000
vn 0.00000 1.00000 0.00000
vn 0.00000 1.00000 0.00000
vn 0.00000 1.00000 0.00000
vn 0.00000 1.00000 0.00000
vn 0.00000 1.00000 0.00000
vn 0.00000 1.00000 0.00000
vn 0.00000 1.00000 0.00000
vn 0.00000 1.00000 0.00000
vn 0.00000 1.00000 0.00000
vn 0.00000 1.00000 0.00000
vn 0.00000 1.00000 0.00000
vn 0.00000 1.00000 0.00000
vn 0.00000 1.00000 0.00000
vn 0.00000 1.00000 0.00000
vn 0.00000 1.00000 0.00000
vn 0.00000 1.00000 0.00000
vn 0.00000 1.00000 0.00000
vn 0.00000 1.00000 0.00000
vn 0.00000 1.00000 0.00000
vn 0.00000 1.00000 0.00000
vn 0.00000 1.00000 0.00000
vn 0.00000 1.00000 0.00000
vn 0.00000 1.00000 0.00000
vn 0.00000 1.00000 0.00000
vn 0.00000 1.00000 0.00000
vn 0.00000 1.00000 0.00000
vn 0.00000 1.00000 0.00000
vn 0.00000 1.00000 0.00000
vn 0.00000 1.00000 0.00000
vn 0.00000 1.00000 0.00000
vn 0.00000 1.00000 0.00000
vn 0.00000 1.00000 0.00000
vn 0.00000 1.00000 0.00000
vn 0.00000 1.00000 0.00000
vn 0.00000 1.00000 0.00000
vn 0.00000 1.00000 0.00000
vn 0.00000 1.00000 0.00000
vn 0.00000 1.00000 0.00000
vn 0.00000 1.00000 0.00000
vn 0.00000 1.00000 0.00000
vn 0.00000 1.00000 0.00000
vn 0.00000 1.00000 0.00000
vn 0.00000 1.00000 0.00000
vn 0.00000 1.00000 0.00000
vn 0.00000 1.00000 0.00000
vn 0.00000 1.00000 0.00000
vn 0.00000 1.00000 0.00000
vn 0.00000 1.00000 0.00000
vn 0.00000 1.00000 0.00000
vn 0.00000 1.00000 0.00000
vn 0.00000 1.00000 0.00000
vn 0.00000 1.00000 0.00000
vn 0.00000 1.00000 0.00000
vn 0.00000 1.00000 0.00000
vn 0.00000 1.00000 0.00000
vn 0.00000 1.00000 0.00000
vn 0.00000 1.00000 0.00000
vn 0.00000 1.00000 0.00000
vn 0.00000 1.00000 0.00000
vn 0.00000 1.00000 0.00000
vn 0.00000 1.00000 0.00000
vn 0.00000 1.00000 0.00000
vn 0.00000 1.00000 0.00000
vn 0.00000 1.00000 0.00000
vn 0.00000 1.00000 0.00000
vn 0.00000 1.00000 0.00000
vn 0.00000 1.00000 0.00000
vn 0.00000 1.00000 0.00000
vn 0.00000 1.00000 0.00000
vn 0.00000 1.00000 0.00000
vn 0.00000 1.00000 0.00000
vn 0.00000 1.00000 0.00000
vn 0.00000 1.00000 0.00000
vn 0.00000 1.00000 0.00000
vn 0.00000 1.00000 0.00000
vn 0.00000 1.00000 0.00000
vn 0.00000 1.00000 0.00000
vn 0.00000 1.00000 0.00000
vn 0.00000 1.00000 0.00000
vn 0.00000 1.00000 0.00000
vn 0.00000 1.00000 0.00000
vn 0.00000 1.00000 0.00000
vn 0.00000 1.00000 0.00000
vn 0.00000 1.00000 0.00000
vn 0.00000 1.00000 0.00000
vn 0.00000 1.00000 0.00000
vn 0.00000 1.00000 0.00000
vn 0.00000 1.00000 0.00000
vn 0.00000 1.00000 0.00000
vn 0.00000 1.00000 0.00000
vn 0.00000 1.00000 0.00000
f 2/2/2 3/3/3 4/4/4 1/1/1 
f 6/6/6 2/2/7 1/1/8 5/5/5 
f 8/8/10 6/6/11 5/5/12 7/7/9 
f 10/10/14 8/8/15 7/7/16 9/9/13 
f 12/12/18 10/10/19 9/9/20 11/11/17 
f 1/1/22 4/4/23 14/14/24 13/13/21 
f 5/5/26 1/1/27 13/13/28 15/15/25 
f 7/7/30 5/5/31 15/15/32 16/16/29 
f 9/9/34 7/7/35 16/16/36 17/17/33 
f 11/11/38 9/9/39 17/17/40 18/18/37 
f 13/13/42 14/14/43 20/20/44 19/19/41 
f 15/15/46 13/13/47 19/19/48 21/21/45 
f 16/16/50 15/15/51 21/21/52 22/22/49 
f 17/17/54 16/16/55 22/22/56 23/23/53 
f 18/18/58 17/17/59 23/23/60 24/24/57 
f 19/19/62 20/20/63 26/26/64 25/25/61 
f 21/21/66 19/19/67 25/25/68 27/27/65 
f 22/22/70 21/21/71 27/27/72 28/28/69 
f 23/23/74 22/22/75 28/28/76 29/29/73 
f 24/24/78 23/23/79 29/29/80 30/30/77 
f 25/25/82 26/26/83 32/32/84 31/31/81 
f 27/27/86 25/25/87 31/31/88 33/33/85 
f 28/28/90 27/27/91 33/33/92 34/34/89 
f 29/29/94 28/28/95 34/34/96 35/35/93 
f 30/30/98 29/29/99 35/35/100 36/36/97 
